<svg height="512pt" viewBox="0 0 512 512.00051" width="512pt" xmlns="http://www.w3.org/2000/svg"><path d="m497 401.667969h-65.332031v-65.335938c0-8.28125-6.714844-15-15-15-8.285157 0-15 6.71875-15 15v65.335938h-65.335938c-8.28125 0-15 6.714843-15 15 0 8.285156 6.71875 15 15 15h65.335938v65.332031c0 8.285156 6.714843 15 15 15 8.285156 0 15-6.714844 15-15v-65.332031h65.332031c8.285156 0 15-6.714844 15-15 0-8.285157-6.714844-15-15-15zm0 0" fill="#00e162"/><path d="m497 401.667969h-65.332031v-65.335938c0-8.28125-6.714844-15-15-15v190.667969c8.285156 0 15-6.714844 15-15v-65.332031h65.332031c8.285156 0 15-6.714844 15-15 0-8.285157-6.714844-15-15-15zm0 0" fill="#00b14c"/><path d="m15.328125 431.667969c-1.785156 0-3.585937-.316407-5.324219-.976563-5.816406-2.210937-9.667968-7.785156-9.671875-14.011718l-.332031-401.667969c-.00390625-5.679688 3.203125-10.878907 8.285156-13.421875 5.078125-2.546875 11.160156-2 15.710938 1.40625l321.660156 241c4.984375 3.734375 7.144531 10.164062 5.421875 16.148437-1.71875 5.984375-6.960937 10.285157-13.167969 10.804688l-186.820312 15.566406-124.546875 140.117187c-2.902344 3.265626-7.011719 5.035157-11.214844 5.035157zm0 0" fill="#2633d8"/><path d="m351.078125 260.144531c1.722656-5.984375-.4375-12.414062-5.421875-16.148437l-321.660156-241c-4.550782-3.40625-10.632813-3.953125-15.710938-1.40625l142.804688 284.925781 186.820312-15.566406c6.207032-.519531 11.449219-4.816407 13.167969-10.804688zm0 0" fill="#141b73"/></svg>